<?xml version="1.0" encoding="UTF-8" standalone="no"?>
<!-- Created with Serif DrawPlus 12,0,4,27 (May 24, 08:37:51) (http://www.serif.com) -->
<svg id="svg2" xmlns:rdf="http://www.w3.org/1999/02/22-rdf-syntax-ns#" xmlns="http://www.w3.org/2000/svg" viewBox="0 0 300 101.26" version="1.1" xmlns:cc="http://creativecommons.org/ns#" xmlns:dc="http://purl.org/dc/elements/1.1/">
 <metadata id="metadata38">
  <rdf:RDF>
   <cc:Work rdf:about="">
    <dc:format>image/svg+xml</dc:format>
    <dc:type rdf:resource="http://purl.org/dc/dcmitype/StillImage"/>
    <dc:title/>
   </cc:Work>
  </rdf:RDF>
 </metadata>
 <g id="Livello_1" fill-rule="evenodd" fill="#008353" transform="translate(-351.89 -339.12)">
  <path id="dp_path001" d="m418.39 405.3v27.541h3.2681v-13.626h4.981v13.626h3.2681v-27.541h-3.2681v10.727h-4.981v-10.727z"/>
  <path id="dp_path002" d="m434.99 414.39 4.4016 16.947-2.5566 9.04h3.2417l6.7734-25.987h-3.11l-2.7934 12.862h-0.0794l-2.4245-12.862z"/>
  <path id="dp_path003" d="m458.05 432.84h3.0836v-30.308h-3.0836v13.916h-0.0527c-0.63278-1.397-1.3707-2.3457-2.9518-2.3457-3.9269 0-4.006 6.1936-4.006 9.2772 0 3.0042 0.0527 9.7512 3.9006 9.7512 1.7393 0 2.4245-1.0541 3.0573-2.6617h0.0527zm-1.845-2.7934c-2.293 0-2.0295-4.9286-2.0295-6.4571 0-1.5024-0.26353-6.4308 2.0295-6.4308 2.0558 0 1.9241 4.955 1.9241 6.4308s0.15812 6.4571-1.9241 6.4571z"/>
  <path id="dp_path004" d="m470.04 414.39h-3.0839v18.449h3.1366v-11.623c0-2.3454 0.71122-3.7685 3.0306-3.7685l0.52706 0.0264v-3.4002c-1.713 0-2.7937 0.94932-3.505 2.5566h-0.0794v-2.2403z"/>
  <path id="dp_path005" d="m483.46 433.13c4.7439 0 5.2182-5.5872 5.2182-9.4617 0-4.0057-0.50071-9.5668-5.2182-9.5668-4.7178 0-5.2182 5.5344-5.2182 9.5668 0 3.8745 0.50041 9.4617 5.2182 9.4617zm0-3.136c-2.3721 0-2.0822-5.0077-2.0822-6.3256 0-1.4491-0.28988-6.4304 2.0822-6.4304 2.3718 0 2.0822 4.9547 2.0822 6.4304 0 1.318 0.28958 6.3256-2.0822 6.3256z"/>
  <path id="dp_path006" d="m497.11 414.39h-3.0836v18.449h3.0836v-11.491c0-1.5812-0.15812-4.1641 1.8711-4.1641 1.6345 0 1.8453 1.6339 1.8453 2.9252v12.73h3.0833v-12.677c0-2.8198-0.10542-6.0615-3.3735-6.0615-1.6339 0-2.662 0.896-3.3471 2.3984h-0.0527v-2.1088z"/>
  <path id="dp_path007" d="m512.77 414.39h-3.0839v18.449h3.0839zm-1.5024-3.2941c1.0808 0 2.0295-1.0278 2.0295-2.293 0-1.2383-0.94871-2.2664-2.0295-2.2664-1.1595 0-2.0819 1.0281-2.0819 2.2664 0.0261 1.2916 0.92236 2.293 2.0819 2.293z"/>
  <path id="dp_path008" d="m525.5 414.73c-0.81694-0.44831-1.5548-0.60642-2.4775-0.60642-4.533 0-4.9283 5.8773-4.9283 9.6728 0 3.6631 0.52706 9.3559 4.9023 9.3559 0.92205 0 1.7126-0.21082 2.5035-0.73788v-3.163c-0.50071 0.3956-0.89631 0.68579-1.5815 0.68579-2.5826 0-2.662-4.6124-2.662-6.4571 0-1.9768 0.0794-6.0882 2.7147-6.1409 0.68518 0.0264 1.1071 0.31624 1.4497 0.86965h0.0791z"/>
  <path id="dp_path009" d="m548.56 405.85c-1.0541-0.68518-2.24-0.92266-3.4789-0.92266-3.7161 0-5.5611 3.189-5.5611 7.0369 0 7.2213 6.9315 8.3285 6.9315 13.81 0 2.0555-0.8433 3.8482-2.8988 3.8482-1.2916 0-2.2667-0.63309-3.2417-1.4237v3.69c1.0278 0.92235 2.3457 1.3176 3.6107 1.3176 3.637 0 5.8246-3.3205 5.8246-7.195 0-3.7161-1.2916-5.5608-3.5316-8.0646l-2.5038-3.0306c-0.65914-0.94932-0.92267-1.7926-0.92267-3.0049 0-1.8974 1.1068-3.5316 2.9255-3.5316 1.1068 0 1.9504 0.47436 2.7937 1.1595z"/>
  <path id="dp_path010" d="m559.65 433.13c4.7172 0 5.2182-5.5872 5.2182-9.4617 0-4.0057-0.50101-9.5668-5.2182-9.5668-4.7178 0-5.2188 5.5344-5.2188 9.5668 0 3.8745 0.50101 9.4617 5.2188 9.4617zm0-3.136c-2.3724 0-2.0822-5.0077-2.0822-6.3256 0-1.4491-0.29019-6.4304 2.0822-6.4304 2.3718 0 2.0555 4.9547 2.0555 6.4304 0 1.318 0.31623 6.3256-2.0555 6.3256z"/>
  <path id="dp_path011" d="m573.25 402.53h-3.0833v30.308h3.0833z"/>
  <path id="dp_path012" d="m579.08 414.39v11.728c0 4.1908 0.63247 7.0105 5.1392 7.0105 3.7691 0 4.7966-2.4775 4.7966-6.2726v-12.44h-3.0833v11.728c0 1.6339 0.23717 3.8742-1.8447 3.8742-2.1088 0-1.8974-2.3984-1.8974-4.0587v-11.544h-3.1103z"/>
  <path id="dp_path013" d="m595.42 409.17v5.2182h-1.6866v2.715h1.6866v15.734h3.0836v-15.734h1.6606v-2.715h-1.6606v-5.2182z"/>
  <path id="dp_path014" d="m608.07 414.39h-3.0833v18.449h3.0833zm-1.5288-3.2941c1.0808 0 2.0295-1.0278 2.0295-2.293 0-1.2383-0.94871-2.2664-2.0295-2.2664-1.1595 0-2.0816 1.0281-2.0816 2.2664 0.0261 1.2916 0.94871 2.293 2.0816 2.293z"/>
  <path id="dp_path015" d="m618.61 433.13c4.7175 0 5.2182-5.5872 5.2182-9.4617 0-4.0057-0.50071-9.5668-5.2182-9.5668-4.7178 0-5.2182 5.5344-5.2182 9.5668-0.0267 3.8745 0.47435 9.4617 5.2182 9.4617zm0-3.136c-2.3721 0-2.0558-5.0077-2.0558-6.3256 0-1.4491-0.28989-6.4304 2.0558-6.4304 2.3718 0 2.0822 4.9547 2.0822 6.4304-0.0266 1.318 0.26354 6.3256-2.0822 6.3256z"/>
  <path id="dp_path016" d="m632.23 414.39h-3.0833v18.449h3.0833v-11.491c0-1.5812-0.15812-4.1641 1.8714-4.1641 1.6339 0 1.8447 1.6339 1.8447 2.9252v12.73h3.0836v-12.677c0-2.8198-0.10541-6.0615-3.3732-6.0615-1.6345 0-2.662 0.896-3.3471 2.3984h-0.0794z"/>
  <path id="dp_path017" d="m651.1 414.89c-0.89477-0.57977-1.7378-0.79059-2.7925-0.79059-2.6353 0-4.4276 2.1082-4.4276 5.0337 0 5.1128 5.1922 5.3236 5.1922 8.5917 0 1.4231-0.73789 2.3457-2.0822 2.3457-1.0541 0-1.7656-0.47435-2.5562-1.1595v3.3735c0.92235 0.63247 1.6075 0.86965 2.6883 0.86965 2.9515 0 4.7687-2.2403 4.7687-5.482 0-5.2709-5.1379-5.4024-5.1906-8.5126 0-1.2386 0.94901-1.9765 2.1086-1.9765 0.76545 0 1.7124 0.3953 2.2915 0.97506z"/>
  <path id="dp_path018" d="m467.2 340.91c-2.5035-0.94871-5.1655-1.3183-7.9065-1.3183-7.5112 0-25.143 4.1644-25.143 28.833 0 18.844 10.779 28.121 23.456 28.121 3.4262 0 6.2196-0.65883 9.3296-1.9768l0.94871-15.391c-2.5035 2.1876-4.7172 3.5056-8.1964 3.5056-7.7484 0-9.7252-8.1704-9.7252-14.601 0-6.0621 1.9768-14.601 10.015-14.601 3.1893 0 5.0074 1.1595 7.2214 3.2151z"/>
  <path id="dp_path019" d="m513.58 395.6-12.15-55.056h-18.923l-13.731 55.056h15.971l1.2916-7.0896h10.41l1.1335 7.0896zm-25.512-18.765 2.1346-12.782c0.60642-3.4259 1.0014-6.9315 1.4497-10.357h0.15812c0.36894 3.4259 0.68518 6.9315 1.1335 10.357l1.6866 12.782z"/>
  <path id="dp_path020" d="m542.15 395.6v-12.993h-11.623v-42.063h-15.497v55.056z"/>
  <path id="dp_path021" d="m544.81 395.6h28.78v-12.993h-13.283v-8.3809h11.939v-12.993h-11.939v-7.6693h13.283v-13.019h-28.78z"/>
  <path id="dp_path022" d="m591.51 395.6v-21.084h11.07v-12.993h-11.07v-7.9595h11.833v-13.019h-27.33v55.056z"/>
  <path id="dp_path023" d="m621.38 395.6v-21.084h11.069v-12.993h-11.069v-7.9595h11.833v-13.019h-27.33v55.056z"/>
  <path id="dp_path024" d="m651.21 395.6v-55.056h-15.471v55.056z"/>
  <path id="dp_path025" d="m406.87 339.12h11.017v10.99h-11.017z"/>
  <path id="dp_path026" d="m395.88 372.11c0 6.0088-4.9813 10.99-10.99 10.99-6.0088 0-10.99-4.9813-10.99-10.99 0-6.0091 4.9813-10.99 10.99-10.99h10.99z"/>
  <path id="dp_path027" d="m383.7 349.55h2.3721v11.886h-2.3721z"/>
  <path id="dp_path028" d="m395.43 370.93h11.886v2.3721h-11.886z"/>
  <path id="dp_path029" d="m384.89 350.11c-12.15 0-22.007 9.8566-22.007 22.007s9.8569 22.007 22.007 22.007 22.007-9.857 22.007-22.007v-10.99h10.99v10.99c0 18.211-14.786 32.997-32.997 32.997s-32.997-14.786-32.997-32.997c0-18.238 14.786-32.997 32.997-32.997h10.99v11.017z"/>
 </g>
</svg>
